<svg xmlns="http://www.w3.org/2000/svg" width="16" height="16" viewBox="0 0 50 50"><path fill="#333" stroke="#333" d="m11 2.48 11.47.07c5.99 0 11.25 2.16 15.8 6.48 4.55 4.33 6.82 9.64 6.82 15.94 0 6.3-2.22 11.71-6.67 16.22-4.44 4.5-9.82 6.75-16.14 6.75H10.94c-2.53 0-4.1-.52-4.72-1.55-.49-.86-.74-2.19-.74-3.97V7.95c0-1 .04-1.72.1-2.17.06-.46.25-.99.58-1.61.58-1.12 2.19-1.69 4.84-1.69Zm11.47 34.49c2.98 0 5.66-1.1 8.06-3.31 2.4-2.22 3.59-5 3.59-8.35 0-3.35-1.16-6.15-3.5-8.4-2.33-2.25-5.07-3.38-8.21-3.38h-5.96v23.44h6.02Z"/></svg>