<svg xmlns="http://www.w3.org/2000/svg" width="96" height="33.6" viewBox="0 0 200 70"><path fill="#333" stroke="#333" d="m12 6.48 11.47.07c5.99 0 11.25 2.16 15.8 6.48 4.55 4.33 6.82 9.64 6.82 15.94 0 6.3-2.22 11.71-6.67 16.22-4.44 4.5-9.82 6.75-16.14 6.75H11.94c-2.53 0-4.1-.52-4.72-1.55-.49-.86-.74-2.19-.74-3.97V11.95c0-1 .04-1.72.1-2.17.06-.46.25-.99.58-1.61.58-1.12 2.19-1.69 4.84-1.69Zm11.47 34.49c2.98 0 5.66-1.1 8.06-3.31 2.4-2.22 3.59-5 3.59-8.35 0-3.35-1.16-6.15-3.5-8.4-2.33-2.25-5.07-3.38-8.21-3.38h-5.96v23.44h6.02ZM71.69 22.8c.25-2.32 1.88-3.47 4.89-3.47 1.61 0 2.81.12 3.59.37.79.25 1.34.68 1.64 1.3.31.62.5 1.18.57 1.66.06.46.09 1.18.09 2.12v21.7c0 .95-.03 1.67-.09 2.14-.07.47-.24 1.02-.52 1.65-.59 1.07-2.01 1.61-4.27 1.61-2.25 0-3.75-.28-4.51-.83-.76-.57-1.2-1.38-1.33-2.46-1.53 2.19-4.09 3.29-7.67 3.29s-6.89-1.63-9.96-4.9c-3.05-3.27-4.57-7.06-4.57-11.37 0-4.32 1.53-8.1 4.61-11.34 3.08-3.25 6.46-4.88 10.15-4.88 1.4 0 2.67.25 3.83.75 1.16.49 1.97.95 2.42 1.39.46.43.83.85 1.13 1.27ZM60.41 35.69c0 1.36.53 2.6 1.61 3.7 1.07 1.09 2.37 1.64 3.9 1.64 1.53 0 2.8-.55 3.81-1.67 1.01-1.13 1.52-2.36 1.52-3.7 0-1.35-.48-2.6-1.45-3.75-.97-1.16-2.28-1.74-3.91-1.74-1.64 0-2.96.58-3.97 1.74-1.01 1.15-1.51 2.41-1.51 3.78Zm56.45-15.99c2.44 1.08 3.66 2.38 3.66 3.91 0 .74-.17 1.44-.5 2.11-.33.66-.49 1.01-.49 1.05l-16.25 36.32c-.33.79-.62 1.39-.84 1.8-.22.41-.58.81-1.08 1.17-.5.38-1.12.56-1.86.56s-1.84-.3-3.28-.92c-2.44-1.07-3.66-2.35-3.66-3.84 0-.99 1.99-5.73 5.96-14.2L86.17 26.89c-.82-1.36-1.23-2.37-1.23-3.03 0-1.32 1.11-2.65 3.34-3.97 1.41-.83 2.5-1.25 3.28-1.25.78 0 1.42.17 1.92.5.5.34.86.68 1.08 1.03.23.35 1.37 2.27 3.41 5.77 2.05 3.49 4.01 6.74 5.87 9.75.21-.66 1.32-3.21 3.35-7.64 2.02-4.45 3.1-6.82 3.25-7.11.14-.29.38-.64.72-1.05.54-.71 1.29-1.06 2.26-1.06.97 0 2.12.29 3.44.87Zm39.55.36c2.14 1.28 3.21 2.65 3.21 4.1 0 .83-.41 1.97-1.23 3.42l-12.84 22c-.41.71-1.07 1.34-1.99 1.9-.9.56-1.81.83-2.7.83-.89 0-1.73-.21-2.53-.64-.81-.44-1.37-.88-1.71-1.34l-.56-.69-12.89-22.06c-.82-1.37-1.23-2.49-1.23-3.36 0-1.49 1.07-2.88 3.22-4.16 1.57-.9 2.81-1.36 3.72-1.36.9 0 1.61.28 2.12.85.52.55 1.07 1.38 1.66 2.5l8.12 15.62 8.13-15.62c.44-.78.78-1.35 1.01-1.69.23-.35.59-.71 1.08-1.06.5-.35 1.16-.53 1.98-.53.84 0 1.98.43 3.43 1.29Zm4.14 15.63c0-4.96 1.73-9.05 5.2-12.27 3.48-3.22 7.45-4.84 11.91-4.84s8.41 1.6 11.84 4.81c3.44 3.2 5.16 7.28 5.16 12.23 0 3.44-.89 6.5-2.68 9.16-1.78 2.67-3.94 4.63-6.48 5.89-2.54 1.26-5.18 1.89-7.91 1.89-2.71 0-5.36-.67-7.93-2.01-2.57-1.35-4.73-3.33-6.49-5.96-1.75-2.62-2.62-5.59-2.62-8.9Zm12.95 4.43c1.32 1.02 2.66 1.52 4.03 1.52 1.36 0 2.73-.52 4.09-1.55 1.37-1.03 2.05-2.55 2.05-4.57 0-2.04-.64-3.54-1.92-4.54-1.28-.98-2.67-1.48-4.16-1.48-1.48 0-2.86.52-4.14 1.55-1.28 1.03-1.92 2.55-1.92 4.56 0 2 .66 3.51 1.97 4.51Z"/></svg>